<?xml version="1.0" encoding="UTF-8"?>
<!DOCTYPE svg PUBLIC "-//W3C//DTD SVG 1.1//EN" "http://www.w3.org/Graphics/SVG/1.1/DTD/svg11.dtd">
<svg xmlns="http://www.w3.org/2000/svg" xmlns:xlink="http://www.w3.org/1999/xlink" version="1.1" width="196px" height="196px" viewBox="-0.5 -0.5 196 196"><defs/><g><path d="M 67 127 L 67 13.37" fill="none" stroke="#000000" stroke-miterlimit="10" pointer-events="stroke"/><path d="M 67 8.12 L 70.5 15.12 L 67 13.37 L 63.5 15.12 Z" fill="#000000" stroke="#000000" stroke-miterlimit="10" pointer-events="all"/><path d="M 67 127 L 180.63 127" fill="none" stroke="#000000" stroke-miterlimit="10" pointer-events="stroke"/><path d="M 185.88 127 L 178.88 130.5 L 180.63 127 L 178.88 123.5 Z" fill="#000000" stroke="#000000" stroke-miterlimit="10" pointer-events="all"/><path d="M 67 127 L 11.5 182.5" fill="none" stroke="#000000" stroke-miterlimit="10" pointer-events="stroke"/><path d="M 7.79 186.21 L 10.27 178.78 L 11.5 182.5 L 15.22 183.73 Z" fill="#000000" stroke="#000000" stroke-miterlimit="10" pointer-events="all"/><ellipse cx="27" cy="127" rx="10" ry="10" fill="#3333ff" stroke="none" pointer-events="all"/><ellipse cx="127" cy="57" rx="10" ry="10" fill="#ff3333" stroke="none" pointer-events="all"/><path d="M 35.19 121.27 L 121.78 60.65" fill="none" stroke="#000000" stroke-miterlimit="10" pointer-events="stroke"/><path d="M 126.08 57.64 L 122.36 64.52 L 121.78 60.65 L 118.34 58.79 Z" fill="#000000" stroke="#000000" stroke-miterlimit="10" pointer-events="all"/><ellipse cx="46" cy="114" rx="5" ry="5" fill="#ff9933" stroke="none" pointer-events="all"/><ellipse cx="65" cy="101" rx="5" ry="5" fill="#ff9933" stroke="none" pointer-events="all"/><ellipse cx="86" cy="86" rx="5" ry="5" fill="#ff9933" stroke="none" pointer-events="all"/><ellipse cx="106" cy="72" rx="5" ry="5" fill="#ff9933" stroke="none" pointer-events="all"/></g></svg>